<svg xmlns="http://www.w3.org/2000/svg" viewBox="0 0 332.28 24.38"><defs><style>.cls-1{fill:#603913;}</style></defs><title>Asset 3</title><g id="Layer_2" data-name="Layer 2"><g id="Layer_8" data-name="Layer 8"><path class="cls-1" d="M169,7.44l-2.84-4.92L163.3,7.44l-2.84,4.92,2.84,4.92,2.84,4.92L169,17.29l2.84-4.92Zm-1.48,7.29-1.36,2.36-1.36-2.36-1.36-2.36L164.77,10l1.36-2.36L167.5,10l1.36,2.36Z"/><circle class="cls-1" cx="141.12" cy="12.37" r="3.26"/><polygon class="cls-1" points="141.12 14.46 0 12.37 141.12 10.27 141.12 14.46"/><path class="cls-1" d="M143.14,9.94l1.29.4a19.25,19.25,0,0,0,3.27.71,9.06,9.06,0,0,0,2.1,0,6.44,6.44,0,0,0,2.16-.64c.17-.09.34-.19.5-.29l.21-.14.28-.23a4.84,4.84,0,0,0,.77-.87,5.29,5.29,0,0,0,.88-2.35,4.88,4.88,0,0,0,0-1.29,4.28,4.28,0,0,0-.13-.62,6.33,6.33,0,0,0-.22-.62A5.62,5.62,0,0,0,150.48.84a5.35,5.35,0,0,0-2.27,0,6,6,0,0,0-3.08,1.63,5.89,5.89,0,0,0-.65.77l-.2.3.17-.32a6,6,0,0,1,.57-.85A6.36,6.36,0,0,1,148.07.28,6,6,0,0,1,150.62,0a6.51,6.51,0,0,1,2.72,1,6.79,6.79,0,0,1,2.18,2.3,7.86,7.86,0,0,1,.36.75,5.72,5.72,0,0,1,.27.82,6.54,6.54,0,0,1,.2,1.7,7.2,7.2,0,0,1-.85,3.31,6.9,6.9,0,0,1-1,1.44l-.25.26-.35.31a8.32,8.32,0,0,1-.68.51,8.94,8.94,0,0,1-2.9,1.22,11.86,11.86,0,0,1-2.73.31,22.13,22.13,0,0,1-3.9-.4l-1.39-.26Z"/><path class="cls-1" d="M152.85,11.46l.27.79c.09.27.19.54.31.83a10.58,10.58,0,0,0,.45,1c.17.39.39.79.63,1.22s.53.86.81,1.32.63.9,1,1.33.75.87,1.14,1.31.83.83,1.27,1.2.89.73,1.33,1.07.89.64,1.33.9.86.52,1.26.72.77.39,1.11.54.63.28.88.37l.78.29-.82-.15c-.27,0-.58-.12-.94-.21s-.77-.19-1.21-.34-.92-.3-1.41-.5-1-.43-1.54-.68-1.07-.54-1.59-.87-1.05-.67-1.58-1-1-.76-1.48-1.18-.92-.84-1.36-1.26-.82-.86-1.17-1.29-.69-.84-1-1.24a13.55,13.55,0,0,1-.76-1.13c-.23-.36-.41-.66-.53-.89l-.41-.73Z"/><circle class="cls-1" cx="191.16" cy="12.37" r="3.26"/><polygon class="cls-1" points="191.16 10.27 332.28 12.37 191.16 14.46 191.16 10.27"/><path class="cls-1" d="M190,13.33l-1.39.26a22.13,22.13,0,0,1-3.9.4,11.86,11.86,0,0,1-2.73-.31,8.94,8.94,0,0,1-2.9-1.22,8.32,8.32,0,0,1-.68-.51l-.35-.31-.25-.26a6.9,6.9,0,0,1-1-1.44,7.2,7.2,0,0,1-.85-3.31,6.54,6.54,0,0,1,.2-1.7,5.72,5.72,0,0,1,.27-.82,7.87,7.87,0,0,1,.36-.75,6.79,6.79,0,0,1,2.18-2.3,6.51,6.51,0,0,1,2.72-1,6,6,0,0,1,2.55.23,6.36,6.36,0,0,1,3.06,2.06,6,6,0,0,1,.57.85l.17.32-.2-.3a5.89,5.89,0,0,0-.65-.77A6,6,0,0,0,184.07.81a5.35,5.35,0,0,0-2.27,0A5.62,5.62,0,0,0,178,4a6.33,6.33,0,0,0-.22.62,4.28,4.28,0,0,0-.13.62,4.88,4.88,0,0,0,0,1.29,5.29,5.29,0,0,0,.88,2.35,4.84,4.84,0,0,0,.77.87l.28.23.21.14c.16.11.33.2.5.29a6.44,6.44,0,0,0,2.16.64,9.06,9.06,0,0,0,2.1,0,19.25,19.25,0,0,0,3.27-.71l1.29-.4Z"/><path class="cls-1" d="M182.61,12.88l-.41.73c-.12.22-.3.53-.53.89a13.55,13.55,0,0,1-.76,1.13c-.28.4-.61.82-1,1.24s-.76.85-1.17,1.29-.87.86-1.36,1.26-1,.79-1.48,1.18-1,.72-1.58,1-1.07.6-1.59.87-1,.49-1.54.68-1,.37-1.41.5-.85.25-1.21.34-.68.17-.94.21l-.82.15.78-.29c.25-.09.55-.22.88-.37s.71-.32,1.11-.54.82-.45,1.26-.72.88-.58,1.33-.9.9-.68,1.33-1.07.85-.8,1.27-1.2.8-.85,1.14-1.31.68-.9,1-1.33.58-.88.81-1.32.46-.83.63-1.22a10.58,10.58,0,0,0,.45-1c.12-.29.23-.56.31-.83l.27-.79Z"/></g></g></svg>